# xmcd CD database file
#
# Track frame offsets:
#        17285
#        32875
#        48862
#        65165
#        82972
#        101780
#        119790
#        135820
#        154455
#        171182
#        189892
#        205185
#        221177
#        240680
#
# Disc length: 3496 seconds
#
# Revision: 0
# Processed by: cddbd v1.5.2PL0 Copyright (c) Steve Scherf et al.
# Submitted via: CUERipper 2.1.6
#
DISCID=ce0cc20e
DTITLE=Kylie Minogue - Light Years
DYEAR=2000
DGENRE=
TTITLE0=Spinning Around
TTITLE1=On a Night Like This
TTITLE2=So Now Goodbye
TTITLE3=Disco Down
TTITLE4=Loveboat
TTITLE5=Koocachoo
TTITLE6=Your Disco Needs You
TTITLE7=Please Stay
TTITLE8=Bittersweet Goodbye
TTITLE9=Butterfly
TTITLE10=Under the Influence of Love
TTITLE11=I’m So High
TTITLE12=Kids
TTITLE13=Light Years
EXTD=
EXTT0=
EXTT1=
EXTT2=
EXTT3=
EXTT4=
EXTT5=
EXTT6=
EXTT7=
EXTT8=
EXTT9=
EXTT10=
EXTT11=
EXTT12=
EXTT13=
PLAYORDER=
